<svg width="275" height="77" viewBox="0 0 275 77" fill="none" xmlns="http://www.w3.org/2000/svg">
<path fill-rule="evenodd" clip-rule="evenodd" d="M20.3908 5.56173C18.6171 6.45817 14.8789 8.20239 12.8543 9.59443C10.8296 10.9865 11.0806 12.2837 10.1944 13.1802C9.30822 14.0766 6.64708 16.3164 4.87469 17.6598C3.10102 19.0045 3.54412 22.5902 3.10103 23.9349C2.65793 25.2783 1.77173 28.4145 1.32864 29.7592C0.884261 31.1038 2.21483 32.8967 3.10103 34.6896C3.9885 36.4812 6.20398 41.4103 7.09146 43.2019C7.97765 44.9948 10.6388 44.0983 12.8543 45.8912C15.0698 47.6841 18.174 49.9252 20.3908 51.2686C22.6062 52.6132 23.4937 52.6132 25.7105 51.2686C27.926 49.9239 31.0302 47.6828 33.247 45.8899C35.4625 44.0983 38.1236 44.9948 39.0098 43.2019C39.896 41.409 42.1127 36.4812 43.0002 34.6883C43.8864 32.8954 45.2157 31.1025 44.7726 29.7592C44.3295 28.4145 43.4433 25.277 43.0002 23.9336C42.5571 22.5889 43.0002 19.0045 41.2266 17.6598C39.4529 16.3152 37.3949 14.6042 35.9068 13.1789C34.4187 11.7536 35.0206 10.9378 33.247 9.59315C31.4733 8.24977 27.4842 6.45817 25.7105 5.56173C23.9368 4.66529 22.1631 4.66529 20.3908 5.56173Z" fill="white"/>
<path fill-rule="evenodd" clip-rule="evenodd" d="M14.1301 13.3364L22.4273 19.0288C22.6139 19.1542 22.8326 19.2231 23.0574 19.2273C23.2825 19.2252 23.5018 19.1561 23.6875 19.0288L31.991 13.3172C32.1504 13.2024 32.2773 13.0484 32.3597 12.8701C32.4421 12.6918 32.477 12.4953 32.4612 12.2995C32.4453 12.1038 32.3792 11.9154 32.2693 11.7527C32.1593 11.59 32.0092 11.4584 31.8335 11.3707L23.5363 7.24192C23.3812 7.16611 23.2108 7.12671 23.0382 7.12671C22.8655 7.12671 22.6951 7.16611 22.54 7.24192L14.2672 11.3707C14.0881 11.4586 13.9353 11.5919 13.8239 11.7574C13.7125 11.9229 13.6465 12.1148 13.6325 12.3138C13.6185 12.5127 13.657 12.7119 13.7441 12.8914C13.8312 13.0708 13.9639 13.2243 14.1289 13.3364H14.1301ZM25.876 20.8153C25.8759 21.0008 25.9206 21.1835 26.0062 21.3481C26.0918 21.5126 26.2158 21.654 26.3678 21.7604L33.0194 26.3297C33.2258 26.4729 33.4746 26.542 33.7253 26.5258C33.976 26.5095 34.2138 26.4088 34.3999 26.24L39.9796 21.2238C40.1028 21.1129 40.2004 20.9765 40.2657 20.8241C40.3309 20.6716 40.3621 20.5068 40.3573 20.3411C40.3524 20.1754 40.3115 20.0127 40.2374 19.8644C40.1634 19.7161 40.0579 19.5856 39.9284 19.4821L34.6009 15.1997C34.4131 15.0494 34.182 14.9633 33.9415 14.9541C33.7011 14.9449 33.4641 15.013 33.2653 15.1485L26.3678 19.8907C26.2185 19.9951 26.096 20.1335 26.0106 20.2945C25.9251 20.4554 25.879 20.6331 25.876 20.8153ZM9.33163 27.0314C9.60056 27.2748 9.73887 27.6333 9.70301 27.9958C9.6863 28.1749 9.62658 28.3474 9.52893 28.4986C9.43128 28.6498 9.29857 28.7751 9.1421 28.864L5.17088 31.2575C4.76748 31.4983 4.25907 31.4637 3.89281 31.1691C3.52655 30.8746 3.37672 30.3816 3.51887 29.9295L4.98775 25.2834C5.04359 25.1031 5.14378 24.9397 5.27914 24.8081C5.4145 24.6766 5.5807 24.5811 5.76253 24.5304C5.94368 24.4773 6.13553 24.4723 6.31921 24.5158C6.50289 24.5594 6.67206 24.65 6.81008 24.7788L9.33163 27.0314ZM30.8756 27.5181L23.6939 22.5774C23.5079 22.4514 23.2884 22.384 23.0638 22.384C22.8392 22.384 22.6197 22.4514 22.4337 22.5774L15.252 27.5168C15.1105 27.6158 14.9929 27.7451 14.9079 27.8953C14.8228 28.0455 14.7723 28.2128 14.7602 28.3851C14.7507 28.5587 14.7797 28.7323 14.845 28.8934C14.9103 29.0546 15.0103 29.1993 15.138 29.3174L22.3133 35.7692C22.5192 35.9548 22.7866 36.0576 23.0638 36.0576C23.341 36.0576 23.6084 35.9548 23.8142 35.7692L30.9883 29.3161C31.1162 29.1988 31.2159 29.0541 31.2802 28.893C31.3445 28.7318 31.3717 28.5582 31.3597 28.3851C31.3504 28.213 31.3019 28.0454 31.2181 27.895C31.1342 27.7445 31.017 27.6152 30.8756 27.5168V27.5181ZM11.7213 26.24L6.14671 21.2238C6.02245 21.1101 5.92424 20.9709 5.85881 20.8158C5.79338 20.6606 5.76228 20.4931 5.76765 20.3248C5.7703 20.1589 5.80955 19.9956 5.8826 19.8466C5.95566 19.6976 6.06071 19.5666 6.19026 19.4629L11.5177 15.1549C11.707 15.0045 11.9393 14.9184 12.181 14.9092C12.4226 14.9 12.6608 14.9681 12.861 15.1037L19.7521 19.8458C20.0722 20.0571 20.2643 20.417 20.2643 20.8038C20.2643 21.1905 20.0722 21.5491 19.7521 21.7604L13.1069 26.3297C12.6779 26.6242 12.1093 26.5858 11.7213 26.24ZM40.3394 33.4461L34.665 30.0319C34.46 29.9076 34.2203 29.8529 33.9816 29.876C33.743 29.8991 33.5182 29.9987 33.3408 30.16L26.4049 36.3813C26.2612 36.5112 26.1525 36.6753 26.0891 36.8584C26.0258 37.0416 26.0097 37.2377 26.0424 37.4287C26.0751 37.6197 26.1555 37.7993 26.2762 37.9509C26.3969 38.1025 26.554 38.2212 26.7328 38.2958L36.3541 42.2145C36.6257 42.3225 36.9285 42.3209 37.1989 42.2101C37.4693 42.0993 37.6862 41.8878 37.8038 41.6203L40.7877 34.9073C40.9049 34.6511 40.924 34.3608 40.8414 34.0915C40.7588 33.8221 40.5802 33.5925 40.3394 33.4461ZM41.127 25.2834L42.5959 29.9295H42.5831C42.6367 30.1008 42.6495 30.2823 42.6206 30.4595C42.5917 30.6367 42.5219 30.8047 42.4166 30.9502C42.2522 31.1778 42.0086 31.3356 41.7336 31.3925C41.4586 31.4494 41.1723 31.4013 40.9311 31.2575L36.9535 28.8627C36.8001 28.7723 36.6708 28.6463 36.5763 28.4954C36.4818 28.3445 36.4249 28.1732 36.4105 27.9958C36.3918 27.8171 36.4158 27.6366 36.4803 27.469C36.5449 27.3014 36.6482 27.1514 36.7819 27.0314L39.3047 24.7724C39.5903 24.5163 39.9834 24.4228 40.351 24.524C40.533 24.5766 40.6991 24.6736 40.8345 24.8061C40.9699 24.9386 41.0704 25.1026 41.127 25.2834ZM20.0799 37.4276C20.1135 37.2371 20.0982 37.0412 20.0355 36.8582C19.9728 36.6752 19.8647 36.5111 19.7214 36.3813L12.7868 30.1587C12.6094 29.9974 12.3846 29.8978 12.146 29.8747C11.9073 29.8517 11.6676 29.9064 11.4626 30.0307L5.78942 33.4461C5.55118 33.5932 5.37403 33.8214 5.29052 34.0886C5.207 34.3559 5.22272 34.6443 5.3348 34.9009L8.3225 41.6152C8.43935 41.8837 8.65641 42.0959 8.92744 42.2066C9.19846 42.3174 9.50203 42.3179 9.77345 42.2081L19.3884 38.2894C19.5674 38.2165 19.7248 38.0992 19.846 37.9487C19.9672 37.7982 20.0482 37.6193 20.0812 37.4288L20.0799 37.4276ZM23.4851 39.3421L31.2022 42.4822C31.3882 42.563 31.5493 42.692 31.6689 42.8559C31.7884 43.0198 31.8621 43.2126 31.8822 43.4145C31.9065 43.6188 31.8747 43.8259 31.7904 44.0136C31.706 44.2013 31.5722 44.3625 31.4032 44.48L23.6811 49.8727C23.4963 50.0036 23.2761 50.0751 23.0497 50.0776C22.8239 50.0737 22.6045 50.0023 22.4196 49.8727L14.7026 44.4813C14.5328 44.3643 14.3979 44.2036 14.3122 44.0161C14.2265 43.8286 14.1931 43.6214 14.2157 43.4165C14.2383 43.2117 14.316 43.0167 14.4405 42.8524C14.565 42.6881 14.7317 42.5606 14.9228 42.4835L22.6399 39.3434C22.9111 39.2345 23.2139 39.2333 23.4851 39.3421Z" fill="#BF4722"/>
<mask id="mask0_187_117" style="mask-type:luminance" maskUnits="userSpaceOnUse" x="56" y="12" width="207" height="41">
<path d="M56.3467 12.7743H262.528V52.4737H56.3467V12.7743Z" fill="white"/>
</mask>
<g mask="url(#mask0_187_117)">
<path d="M62.591 27.5387H64.6042C66.5789 27.5387 68.0362 27.2134 68.9749 26.5654C69.9149 25.9161 70.3849 24.8955 70.3849 23.5047C70.3849 22.1267 69.9021 21.1471 68.9352 20.5644C67.9812 19.9804 66.4982 19.6897 64.4838 19.6897H62.591V27.5387ZM62.591 32.5459V43.6925H56.3467V14.6428H64.9269C68.9288 14.6428 71.8896 15.365 73.8093 16.8083C75.7302 18.2388 76.6894 20.4184 76.6894 23.3459C76.6894 25.0543 76.213 26.5782 75.259 27.9165C74.3062 29.2406 72.9564 30.2805 71.2122 31.0361C75.6432 37.5673 78.5297 41.7856 79.8718 43.6925H72.9436L65.913 32.5459H62.591Z" fill="white"/>
<path d="M88.8976 25.3731C87.5952 25.3731 86.5746 25.7829 85.8369 26.6051C85.0967 27.4118 84.6741 28.5644 84.5666 30.0627H93.1877C93.1608 28.5644 92.7651 27.4118 91.9993 26.6051C91.2335 25.7829 90.2 25.3731 88.8976 25.3731ZM89.7633 44.0907C86.1392 44.0907 83.3051 43.1046 81.2638 41.1299C79.2225 39.1565 78.2031 36.3609 78.2031 32.7444C78.2031 29.0216 79.1418 26.1479 81.0218 24.1206C82.9158 22.0806 85.527 21.0599 88.8567 21.0599C92.039 21.0599 94.517 21.9551 96.2894 23.7429C98.0618 25.5319 98.948 28.0022 98.948 31.1551V34.0954H84.4257C84.4936 35.8179 85.0097 37.1625 85.9765 38.1294C86.9434 39.0963 88.2996 39.5804 90.0451 39.5804C91.4025 39.5804 92.6832 39.4408 93.8921 39.1629C95.197 38.8509 96.466 38.4045 97.6789 37.831V42.5207C96.6044 43.0509 95.457 43.4414 94.234 43.6925C93.0136 43.9575 91.5229 44.0907 89.7633 44.0907ZM109.424 44.0907C106.778 44.0907 104.698 43.0778 103.179 41.0505C101.676 39.0233 100.924 36.2149 100.924 32.6253C100.924 28.9819 101.689 26.1479 103.22 24.1219C104.763 22.0806 106.885 21.0612 109.585 21.0612C112.418 21.0612 114.579 22.1472 116.07 24.3191H116.271C115.964 22.6633 115.809 21.1867 115.809 19.8882V12.7743H121.971V43.6925H117.258L116.07 40.811H115.809C114.413 42.9971 112.283 44.0907 109.424 44.0907ZM111.579 39.2628C113.149 39.2628 114.298 38.812 115.024 37.9104C115.761 37.0101 116.163 35.4798 116.231 33.3207V32.665C116.231 30.2805 115.855 28.5721 115.103 27.5386C114.364 26.5052 113.157 25.9891 111.478 25.9891C110.107 25.9891 109.041 26.5654 108.276 27.7179C107.523 28.8577 107.147 30.5186 107.147 32.7047C107.147 34.8907 107.531 36.5338 108.295 37.6325C109.061 38.7185 110.155 39.2628 111.579 39.2628ZM145.257 43.6925L143.524 35.9242L141.188 26.1082H141.047L136.938 43.6925H130.331L123.927 21.4774H130.049L132.648 31.3139C133.064 33.0761 133.486 35.5067 133.917 38.6058H134.037C134.091 37.5992 134.327 36.0036 134.743 33.8175L135.064 32.1284L137.844 21.4774H144.611L147.251 32.1284L147.491 33.4205C147.747 34.6505 147.956 35.8898 148.116 37.1356C148.21 37.7452 148.264 38.2357 148.278 38.6058H148.398C148.52 37.653 148.734 36.3481 149.044 34.6922C149.245 33.5622 149.466 32.4359 149.708 31.3139L152.406 21.4787H158.429L151.943 43.6937L145.257 43.6925ZM165.319 32.5459C165.319 34.7447 165.681 36.407 166.406 37.5326C167.145 38.6596 168.34 39.2231 169.992 39.2231C171.63 39.2231 172.804 38.666 173.516 37.5531C174.241 36.4262 174.604 34.7575 174.604 32.5459C174.604 30.347 174.241 28.6976 173.516 27.5975C172.791 26.4988 171.603 25.9494 169.951 25.9494C168.313 25.9494 167.131 26.4988 166.406 27.5975C165.681 28.6848 165.319 30.333 165.319 32.5459ZM180.888 32.5459C180.888 36.1624 179.922 38.99 177.988 41.03C176.054 43.0701 173.363 44.0907 169.911 44.0907C167.75 44.0907 165.843 43.6271 164.191 42.7C162.54 41.7587 161.271 40.414 160.385 38.666C159.499 36.9167 159.055 34.8766 159.055 32.5446C159.055 28.9166 160.015 26.0941 161.936 24.0809C163.855 22.0678 166.555 21.0612 170.032 21.0612C172.193 21.0612 174.1 21.5248 175.752 22.452C177.404 23.3792 178.672 24.7097 179.558 26.445C180.445 28.1815 180.888 30.2139 180.888 32.5459ZM189.208 32.5459C189.208 34.7447 189.57 36.407 190.296 37.5326C191.034 38.6596 192.23 39.2231 193.881 39.2231C195.519 39.2231 196.694 38.666 197.405 37.5531C198.131 36.4262 198.494 34.7575 198.494 32.5459C198.494 30.347 198.131 28.6976 197.405 27.5975C196.68 26.4988 195.492 25.9494 193.841 25.9494C192.202 25.9494 191.021 26.4988 190.296 27.5975C189.57 28.6848 189.208 30.333 189.208 32.5459ZM204.778 32.5459C204.778 36.1624 203.811 38.99 201.877 41.03C199.943 43.0701 197.251 44.0907 193.8 44.0907C191.638 44.0907 189.732 43.6271 188.081 42.7C186.429 41.7587 185.16 40.414 184.274 38.666C183.387 36.9167 182.944 34.8766 182.944 32.5446C182.944 28.9166 183.905 26.0941 185.824 24.0809C187.745 22.0678 190.444 21.0612 193.922 21.0612C196.083 21.0612 197.99 21.5248 199.641 22.452C201.293 23.3792 202.562 24.7097 203.448 26.445C204.335 28.1815 204.778 30.2139 204.778 32.5459ZM215.333 44.0907C212.688 44.0907 210.607 43.0778 209.09 41.0505C207.585 39.0233 206.833 36.2149 206.833 32.6253C206.833 28.9819 207.599 26.1479 209.129 24.1219C210.674 22.0806 212.796 21.0612 215.494 21.0612C218.328 21.0612 220.49 22.1472 221.979 24.3191H222.181C221.873 22.6633 221.718 21.1867 221.718 19.8882V12.7743H227.881V43.6925H223.167L221.979 40.811H221.718C220.322 42.9971 218.194 44.0907 215.333 44.0907ZM217.488 39.2628C219.059 39.2628 220.208 38.812 220.933 37.9104C221.67 37.0101 222.074 35.4798 222.14 33.3207V32.665C222.14 30.2805 221.765 28.5721 221.013 27.5386C220.275 26.5052 219.066 25.9891 217.388 25.9891C216.018 25.9891 214.951 26.5654 214.185 27.7179C213.433 28.8577 213.057 30.5186 213.057 32.7047C213.057 34.8907 213.44 36.5338 214.206 37.6325C214.97 38.7185 216.065 39.2628 217.488 39.2628Z" fill="white"/>
<path d="M230.059 52.2368C228.649 52.2368 227.419 52.0921 226.373 51.8014V46.6738C227.446 46.9389 228.427 47.0708 229.313 47.0708C230.682 47.0708 231.663 46.6482 232.254 45.7991C232.845 44.9654 233.14 43.6528 233.14 41.865V14.6428H239.384V41.8253C239.384 45.2164 238.598 47.7995 237.028 49.5744C235.457 51.3494 233.133 52.2368 230.059 52.2368ZM262.528 35.6258C262.528 38.2486 261.567 40.3155 259.648 41.8241C257.741 43.3352 255.082 44.0908 251.672 44.0908C248.529 44.0908 245.75 43.5068 243.332 42.3414V36.6196C245.32 37.493 246.999 38.109 248.368 38.4675C249.751 38.8248 251.014 39.0041 252.155 39.0041C253.524 39.0041 254.571 38.7454 255.297 38.2281C256.035 37.712 256.405 36.9436 256.405 35.9229C256.405 35.3543 256.244 34.8511 255.921 34.4131C255.598 33.9636 255.122 33.532 254.49 33.1222C253.873 32.7124 252.604 32.0554 250.684 31.1552C248.885 30.3202 247.535 29.5185 246.636 28.7501C245.753 28.0023 245.021 27.0915 244.481 26.0672C243.943 25.0479 243.676 23.8556 243.676 22.4917C243.676 19.9215 244.554 17.9007 246.314 16.4305C248.086 14.9604 250.529 14.2253 253.645 14.2253C255.176 14.2253 256.633 14.4046 258.016 14.7619C259.412 15.1204 260.869 15.6224 262.387 16.273L260.372 21.06C258.801 20.4248 257.499 19.9804 256.465 19.7281C255.477 19.4808 254.463 19.3544 253.444 19.3516C252.262 19.3516 251.356 19.6231 250.724 20.1661C250.094 20.7091 249.778 21.4186 249.778 22.2919C249.778 22.8362 249.906 23.3126 250.161 23.7237C250.416 24.1207 250.819 24.5113 251.37 24.8955C251.933 25.2668 253.256 25.9417 255.337 26.9227C258.089 28.22 259.977 29.5249 260.997 30.8363C262.017 32.1348 262.528 33.7305 262.528 35.6258Z" fill="white"/>
</g>
<path d="M66.2982 64.142C67.1067 64.3935 68.562 65.0583 68.6338 65.7051C68.6877 66.3159 67.4481 67.4657 66.9271 67.5196C66.2264 67.5735 65.6694 66.9088 65.1484 66.6932C61.3576 65.3457 58.3932 69.2085 60.2437 72.1728C61.0522 73.4664 63.1183 74.4006 65.2023 73.6281C65.7413 73.4125 66.3521 72.7478 66.9989 72.7478C67.5379 72.7657 68.7057 73.682 68.6877 74.3288C68.6698 75.1193 67.1966 75.7122 66.5857 75.9637C61.8966 77.8861 56.7223 75.2271 56.399 70.6098C56.1474 66.7291 59.0579 64.142 62.6871 63.8546C63.5494 63.7827 65.1305 63.7647 66.2982 64.142Z" fill="white"/>
<path d="M92.1753 66.6213C93.9719 69.0827 93.343 72.5681 91.6003 74.4186C87.6478 78.5688 78.8804 76.5566 78.7905 70.2864C78.7546 68.2203 79.6888 66.7471 80.6949 65.7949C81.701 64.8607 83.3 64.0522 85.2583 63.8725C88.4742 63.621 90.9895 65.0044 92.1753 66.6213ZM86.4082 73.9515C87.7915 73.8437 89.0671 72.9813 89.6241 71.9752C91.2231 68.9569 88.4203 66.2261 85.6536 66.4956C83.7671 66.6932 82.4916 67.843 82.1682 69.2983C81.5753 71.9034 83.7312 74.1311 86.4082 73.9515Z" fill="white"/>
<path d="M106.466 72.9813C106.466 73.8437 106.79 75.7481 106.233 76.305C105.802 76.7362 103.969 76.6464 103.61 76.305C103.232 75.9098 103.376 74.3108 103.376 73.3945C103.376 71.4542 103.376 69.0647 103.376 67.2142C103.376 65.8488 103.053 64.2678 104.203 64.1241C104.634 64.0881 105.496 64.0522 106.053 64.2498C106.646 64.4474 107.185 65.238 107.67 65.8129C108.784 67.1244 109.341 67.879 110.545 69.3162C110.994 69.8373 111.802 70.9332 112.162 70.8254C112.683 70.6996 112.467 68.6695 112.467 67.6274C112.467 66.6932 112.269 64.7888 112.683 64.3756C113.024 64.0342 114.856 63.9085 115.324 64.3756C115.737 64.7888 115.539 66.4596 115.539 67.2861C115.539 69.1546 115.539 71.4542 115.539 73.4664C115.539 74.3108 115.719 75.8918 115.324 76.305C114.946 76.6823 113.617 76.6105 113.042 76.4308C112.395 76.1793 111.874 75.263 111.407 74.742C110.347 73.4844 109.395 72.4244 108.371 71.1667C107.922 70.5918 107.454 69.8732 106.682 69.6037C106.305 70.3942 106.466 71.7057 106.466 72.9813Z" fill="white"/>
<path d="M131.356 64.142C132.578 64.142 135.345 63.8366 135.902 64.3756C136.279 64.7349 136.261 66.1722 135.902 66.5315C135.345 67.0705 133.458 66.7651 132.524 66.7651C131.608 66.7651 129.596 66.5135 129.093 66.9447C128.662 67.304 128.823 68.7952 129.093 69.0288C129.919 69.7295 134.267 68.6156 135.075 69.442C135.489 69.8552 135.381 71.2925 135.075 71.5979C134.626 72.0291 133.081 71.8315 132.111 71.8315C131.195 71.8315 129.56 71.5979 129.093 72.0112C128.32 72.6759 129.344 75.6044 128.608 76.323C128.284 76.6464 126.344 76.7183 125.931 76.323C125.589 75.9817 125.715 74.4366 125.715 73.3945C125.715 71.4362 125.715 69.1007 125.715 67.1064C125.715 66.2081 125.446 64.3217 126.344 64.2139C127.799 63.9085 129.344 64.142 131.356 64.142Z" fill="white"/>
<path d="M151.869 64.178C153.055 64.178 155.857 63.8546 156.414 64.4295C156.756 64.7708 156.774 66.1542 156.414 66.5135C155.947 66.9807 154.241 66.7471 153.091 66.7471C151.977 66.7471 150.27 66.4776 149.713 66.8549C149.354 67.1064 149.192 68.4898 149.659 68.903C150.486 69.6217 154.69 68.4539 155.534 69.2983C155.875 69.6396 155.929 71.023 155.534 71.4003C155.031 71.9034 153.432 71.6339 152.695 71.6339C151.851 71.6339 150.18 71.4542 149.713 71.7596C149.336 72.0112 149.264 73.4844 149.659 73.8437C150.162 74.2928 152.031 74.0234 153.145 74.0234C153.989 74.0234 156.055 73.7898 156.522 74.2569C156.846 74.5623 156.917 75.9637 156.522 76.3589C156.199 76.6823 154.977 76.5745 154.133 76.5745C152.192 76.5745 150.881 76.5745 148.905 76.5745C148.024 76.5745 146.821 76.6464 146.515 76.3589C146.174 75.9996 146.282 74.4725 146.282 73.4484C146.282 71.5081 146.282 69.1725 146.282 67.1424C146.282 65.7949 146.012 64.4474 147.036 64.2319C148.06 64.0163 149.965 64.178 151.869 64.178Z" fill="white"/>
<path d="M173.243 64.1241C176.1 64.2319 178.31 65.4176 178.363 68.2024C178.399 69.6396 177.627 70.8434 176.675 71.5261C176.423 71.7057 175.902 71.9393 175.848 72.2806C175.794 72.8017 176.675 73.7 177.088 74.2569C177.429 74.742 178.471 75.6403 178.31 76.1793C178.166 76.6105 176.1 76.7003 175.399 76.4667C174.698 76.2511 174.231 75.2989 173.71 74.6162C173.153 73.8796 172.74 72.9095 172.075 72.6939C171.5 72.4783 170.458 72.5681 170.207 72.8556C169.74 73.4125 170.297 75.802 169.794 76.305C169.47 76.6284 167.566 76.7542 167.117 76.305C166.757 75.9457 166.901 74.3288 166.901 73.3945C166.901 71.0769 166.901 69.5857 166.901 67.2142C166.901 66.298 166.739 64.7529 167.117 64.3756C167.278 64.2139 167.566 64.1959 167.656 64.178C169.093 63.8725 171.662 64.0702 173.243 64.1241ZM170.207 69.8193C170.584 70.2505 172.399 70.1607 173.297 70.0708C174.465 69.9451 175.435 69.1186 175.058 67.843C174.627 66.5495 172.327 66.5674 170.62 66.801C170.494 66.8369 170.297 66.8369 170.153 67.0525C169.83 67.4837 169.955 69.5318 170.207 69.8193Z" fill="white"/>
<path d="M194.073 64.178C195.259 64.178 198.062 63.8546 198.618 64.4295C198.96 64.7708 198.978 66.1542 198.618 66.5135C198.151 66.9807 196.445 66.7471 195.295 66.7471C194.181 66.7471 192.474 66.4776 191.917 66.8549C191.558 67.1064 191.396 68.4898 191.863 68.903C192.69 69.6217 196.894 68.4539 197.738 69.2983C198.08 69.6396 198.133 71.023 197.738 71.4003C197.235 71.9034 195.636 71.6339 194.9 71.6339C194.055 71.6339 192.384 71.4542 191.917 71.7596C191.54 72.0112 191.468 73.4844 191.863 73.8437C192.366 74.2928 194.235 74.0234 195.349 74.0234C196.193 74.0234 198.259 73.7898 198.726 74.2569C199.05 74.5623 199.122 75.9637 198.726 76.3589C198.403 76.6823 197.181 76.5745 196.337 76.5745C194.396 76.5745 193.085 76.5745 191.109 76.5745C190.228 76.5745 189.025 76.6464 188.719 76.3589C188.378 75.9996 188.486 74.4725 188.486 73.4484C188.486 71.5081 188.486 69.1725 188.486 67.1424C188.486 65.7949 188.216 64.4474 189.24 64.2319C190.264 64.0163 192.169 64.178 194.073 64.178Z" fill="white"/>
<path d="M212.213 72.9813C212.213 73.8437 212.537 75.7481 211.98 76.305C211.549 76.7362 209.716 76.6464 209.357 76.305C208.979 75.9098 209.123 74.3108 209.123 73.3945C209.123 71.4542 209.123 69.0647 209.123 67.2142C209.123 65.8488 208.8 64.2678 209.95 64.1241C210.381 64.0881 211.243 64.0522 211.8 64.2498C212.393 64.4474 212.932 65.238 213.417 65.8129C214.531 67.1244 215.088 67.879 216.292 69.3162C216.741 69.8373 217.549 70.9332 217.909 70.8254C218.43 70.6996 218.214 68.6695 218.214 67.6274C218.214 66.6932 218.016 64.7888 218.43 64.3756C218.771 64.0342 220.603 63.9085 221.071 64.3756C221.484 64.7888 221.286 66.4596 221.286 67.2861C221.286 69.1546 221.286 71.4542 221.286 73.4664C221.286 74.3108 221.466 75.8918 221.071 76.305C220.693 76.6823 219.364 76.6105 218.789 76.4308C218.142 76.1793 217.621 75.263 217.154 74.742C216.094 73.4844 215.142 72.4244 214.118 71.1667C213.669 70.5918 213.201 69.8732 212.429 69.6037C212.052 70.3942 212.213 71.7057 212.213 72.9813Z" fill="white"/>
<path d="M241.325 64.142C242.134 64.3935 243.589 65.0583 243.661 65.7051C243.715 66.3159 242.475 67.4657 241.954 67.5196C241.254 67.5735 240.697 66.9088 240.176 66.6932C236.385 65.3457 233.42 69.2085 235.271 72.1728C236.079 73.4664 238.145 74.4006 240.23 73.6281C240.769 73.4125 241.379 72.7478 242.026 72.7478C242.565 72.7657 243.733 73.682 243.715 74.3288C243.697 75.1193 242.224 75.7122 241.613 75.9637C236.924 77.8861 231.75 75.2271 231.426 70.6098C231.175 66.7291 234.085 64.142 237.714 63.8546C238.577 63.7827 240.158 63.7647 241.325 64.142Z" fill="white"/>
<path d="M259.423 64.178C260.609 64.178 263.412 63.8546 263.969 64.4295C264.31 64.7708 264.328 66.1542 263.969 66.5135C263.501 66.9807 261.795 66.7471 260.645 66.7471C259.531 66.7471 257.824 66.4776 257.267 66.8549C256.908 67.1064 256.746 68.4898 257.213 68.903C258.04 69.6217 262.244 68.4539 263.088 69.2983C263.43 69.6396 263.484 71.023 263.088 71.4003C262.585 71.9034 260.986 71.6339 260.25 71.6339C259.405 71.6339 257.734 71.4542 257.267 71.7596C256.89 72.0112 256.818 73.4844 257.213 73.8437C257.716 74.2928 259.585 74.0234 260.699 74.0234C261.543 74.0234 263.609 73.7898 264.076 74.2569C264.4 74.5623 264.472 75.9637 264.076 76.3589C263.753 76.6823 262.531 76.5745 261.687 76.5745C259.747 76.5745 258.435 76.5745 256.459 76.5745C255.578 76.5745 254.375 76.6464 254.069 76.3589C253.728 75.9996 253.836 74.4725 253.836 73.4484C253.836 71.5081 253.836 69.1725 253.836 67.1424C253.836 65.7949 253.566 64.4474 254.59 64.2319C255.614 64.0163 257.519 64.178 259.423 64.178Z" fill="white"/>
</svg>
