<svg width="272" height="58" viewBox="0 0 272 58" fill="none" xmlns="http://www.w3.org/2000/svg">
<title>RedwoodJS</title>
<path fill-rule="evenodd" clip-rule="evenodd" d="M20.5486 5.50529C18.793 6.39262 15.0928 8.11913 13.0886 9.49703C11.0845 10.8749 11.333 12.159 10.4558 13.0464C9.5786 13.9337 6.94448 16.1508 5.19009 17.4805C3.43443 18.8115 3.87302 22.3609 3.43443 23.6919C2.99583 25.0216 2.11863 28.126 1.68004 29.457C1.24017 30.788 2.55723 32.5627 3.43443 34.3374C4.31289 36.1108 6.50588 40.9899 7.38434 42.7633C8.26154 44.538 10.8957 43.6506 13.0886 45.4253C15.2816 47.2 18.3544 49.4183 20.5486 50.748C22.7416 52.0791 23.6201 52.0791 25.8143 50.748C28.0073 49.417 31.08 47.1987 33.2743 45.424C35.4673 43.6506 38.1014 44.538 38.9786 42.7633C39.8558 40.9886 42.05 36.1108 42.9285 34.3361C43.8057 32.5614 45.1215 30.7868 44.6829 29.457C44.2443 28.126 43.3671 25.0204 42.9285 23.6906C42.4899 22.3596 42.9285 18.8115 41.1729 17.4805C39.4172 16.1495 37.3801 14.456 35.9071 13.0451C34.4342 11.6342 35.0299 10.8268 33.2743 9.49577C31.5186 8.16603 27.57 6.39262 25.8143 5.50529C24.0587 4.61795 22.303 4.61795 20.5486 5.50529Z" fill="white"/>
<path fill-rule="evenodd" clip-rule="evenodd" d="M14.3512 13.201L22.5641 18.8356C22.7488 18.9597 22.9654 19.0279 23.1878 19.0321C23.4106 19.0301 23.6277 18.9617 23.8115 18.8356L32.0308 13.182C32.1885 13.0684 32.3142 12.9159 32.3957 12.7394C32.4772 12.563 32.5118 12.3684 32.4961 12.1747C32.4804 11.9809 32.415 11.7945 32.3062 11.6334C32.1973 11.4723 32.0488 11.3421 31.8748 11.2552L23.6619 7.16842C23.5084 7.09339 23.3397 7.05438 23.1688 7.05438C22.9979 7.05438 22.8292 7.09339 22.6757 7.16842L14.4868 11.2552C14.3096 11.3423 14.1583 11.4743 14.0481 11.6381C13.9378 11.8019 13.8725 11.9918 13.8587 12.1888C13.8448 12.3857 13.8829 12.5829 13.9691 12.7605C14.0553 12.9382 14.1866 13.0901 14.3499 13.201H14.3512ZM25.9778 20.604C25.9777 20.7876 26.0219 20.9685 26.1067 21.1313C26.1914 21.2942 26.3142 21.4342 26.4646 21.5395L33.0487 26.0624C33.2529 26.2042 33.4992 26.2726 33.7474 26.2565C33.9955 26.2404 34.2309 26.1407 34.4152 25.9736L39.9382 21.0083C40.0602 20.8986 40.1568 20.7635 40.2214 20.6127C40.2859 20.4618 40.3169 20.2987 40.312 20.1346C40.3072 19.9706 40.2667 19.8095 40.1934 19.6627C40.1201 19.5159 40.0157 19.3868 39.8875 19.2844L34.6142 15.0454C34.4282 14.8966 34.1994 14.8114 33.9615 14.8023C33.7235 14.7932 33.4888 14.8606 33.292 14.9947L26.4646 19.6887C26.3168 19.7921 26.1956 19.9291 26.111 20.0884C26.0264 20.2478 25.9808 20.4236 25.9778 20.604ZM9.60142 26.757C9.86762 26.9979 10.0045 27.3528 9.96903 27.7115C9.95249 27.8889 9.89338 28.0596 9.79672 28.2093C9.70005 28.3589 9.5687 28.483 9.41381 28.571L5.48291 30.9402C5.08361 31.1785 4.58036 31.1443 4.21782 30.8527C3.85528 30.5612 3.70697 30.0731 3.84768 29.6256L5.30164 25.0267C5.35692 24.8482 5.45609 24.6865 5.59007 24.5563C5.72406 24.426 5.88857 24.3315 6.06855 24.2813C6.24787 24.2288 6.43777 24.2238 6.61959 24.2669C6.8014 24.3101 6.96885 24.3998 7.10547 24.5273L9.60142 26.757ZM30.9267 27.2387L23.8178 22.3482C23.6338 22.2235 23.4165 22.1568 23.1942 22.1568C22.9718 22.1568 22.7545 22.2235 22.5705 22.3482L15.4616 27.2374C15.3216 27.3354 15.2052 27.4634 15.121 27.6121C15.0368 27.7608 14.9869 27.9264 14.9749 28.0969C14.9655 28.2687 14.9941 28.4406 15.0588 28.6001C15.1234 28.7596 15.2225 28.9029 15.3488 29.0197L22.4513 35.406C22.6551 35.5898 22.9198 35.6915 23.1942 35.6915C23.4685 35.6915 23.7332 35.5898 23.937 35.406L31.0382 29.0185C31.1648 28.9023 31.2635 28.7592 31.3272 28.5996C31.3908 28.4401 31.4177 28.2682 31.4058 28.0969C31.3966 27.9266 31.3487 27.7607 31.2656 27.6118C31.1826 27.4628 31.0667 27.3348 30.9267 27.2374V27.2387ZM11.9668 25.9736L6.44884 21.0083C6.32584 20.8958 6.22863 20.7581 6.16386 20.6045C6.0991 20.4509 6.06831 20.2851 6.07362 20.1185C6.07624 19.9542 6.1151 19.7926 6.18741 19.6451C6.25972 19.4977 6.36371 19.368 6.49194 19.2654L11.7653 15.0011C11.9526 14.8522 12.1827 14.767 12.4218 14.7579C12.661 14.7488 12.8968 14.8162 13.095 14.9504L19.9161 19.6444C20.233 19.8535 20.4231 20.2097 20.4231 20.5926C20.4231 20.9754 20.233 21.3303 19.9161 21.5395L13.3384 26.0624C12.9137 26.3539 12.3509 26.3159 11.9668 25.9736ZM40.2944 33.1065L34.6776 29.7271C34.4746 29.604 34.2374 29.5499 34.0011 29.5727C33.7649 29.5956 33.5424 29.6942 33.3668 29.8538L26.5014 36.0119C26.3591 36.1405 26.2515 36.303 26.1888 36.4842C26.126 36.6655 26.1101 36.8597 26.1425 37.0487C26.1749 37.2378 26.2545 37.4156 26.374 37.5656C26.4934 37.7157 26.6489 37.8331 26.8259 37.907L36.3495 41.786C36.6183 41.8928 36.9181 41.8913 37.1858 41.7816C37.4534 41.6719 37.6681 41.4626 37.7845 41.1978L40.7381 34.5529C40.8541 34.2993 40.873 34.012 40.7913 33.7454C40.7095 33.4787 40.5327 33.2514 40.2944 33.1065ZM41.074 25.0267L42.5279 29.6256H42.5153C42.5683 29.7953 42.581 29.9749 42.5524 30.1503C42.5238 30.3257 42.4547 30.492 42.3505 30.6359C42.1878 30.8613 41.9466 31.0175 41.6744 31.0738C41.4022 31.1301 41.1188 31.0825 40.88 30.9402L36.9428 28.5697C36.791 28.4802 36.663 28.3555 36.5695 28.2061C36.4759 28.0568 36.4196 27.8872 36.4053 27.7115C36.3869 27.5347 36.4106 27.356 36.4744 27.1901C36.5383 27.0242 36.6406 26.8758 36.7729 26.757L39.2702 24.5209C39.5528 24.2674 39.942 24.1749 40.3058 24.275C40.486 24.3271 40.6504 24.4231 40.7844 24.5542C40.9185 24.6854 41.018 24.8477 41.074 25.0267ZM20.2406 37.0476C20.2738 36.859 20.2587 36.6651 20.1966 36.484C20.1346 36.3029 20.0276 36.1405 19.8857 36.0119L13.0215 29.8525C12.8459 29.6929 12.6234 29.5943 12.3872 29.5714C12.1509 29.5486 11.9137 29.6027 11.7107 29.7258L6.09517 33.1065C5.85936 33.2522 5.68401 33.478 5.60134 33.7425C5.51867 34.0071 5.53423 34.2926 5.64517 34.5466L8.60253 41.1927C8.71819 41.4584 8.93305 41.6685 9.20133 41.7781C9.4696 41.8878 9.77009 41.8883 10.0388 41.7796L19.5561 37.9007C19.7332 37.8285 19.8891 37.7124 20.0091 37.5634C20.129 37.4144 20.2091 37.2373 20.2419 37.0488L20.2406 37.0476ZM23.6112 38.9427L31.2499 42.0509C31.4341 42.1309 31.5935 42.2586 31.7119 42.4208C31.8302 42.5831 31.9031 42.7739 31.923 42.9737C31.947 43.176 31.9156 43.381 31.8321 43.5668C31.7486 43.7525 31.6161 43.9121 31.4489 44.0284L23.8051 49.3664C23.6223 49.496 23.4043 49.5667 23.1802 49.5692C22.9567 49.5653 22.7395 49.4946 22.5565 49.3664L14.9178 44.0297C14.7498 43.9139 14.6163 43.7548 14.5314 43.5692C14.4466 43.3837 14.4136 43.1786 14.4359 42.9758C14.4583 42.7729 14.5352 42.58 14.6584 42.4173C14.7817 42.2547 14.9466 42.1285 15.1359 42.0522L22.7746 38.9439C23.043 38.8362 23.3427 38.8349 23.6112 38.9427Z" fill="#BF4722"/>
<path d="M62.3206 27.259H64.3133C66.268 27.259 67.7105 26.937 68.6397 26.2956C69.5701 25.6529 70.0353 24.6426 70.0353 23.2659C70.0353 21.902 69.5574 20.9322 68.6004 20.3555C67.656 19.7774 66.1881 19.4897 64.1941 19.4897H62.3206V27.259ZM62.3206 32.2154V43.2488H56.1396V14.494H64.6327C68.5941 14.494 71.5248 15.2089 73.425 16.6375C75.3264 18.0535 76.2759 20.211 76.2759 23.1088C76.2759 24.7998 75.8043 26.3082 74.8599 27.6329C73.9168 28.9436 72.5807 29.9729 70.8542 30.7208C75.2402 37.1857 78.0974 41.3613 79.4259 43.2488H72.5681L65.6088 32.2154H62.3206Z" fill="white"/>
<path d="M88.3601 25.1154C87.0709 25.1154 86.0606 25.5211 85.3305 26.3349C84.5978 27.1335 84.1795 28.2743 84.073 29.7575H92.6066C92.58 28.2743 92.1883 27.1335 91.4303 26.3349C90.6722 25.5211 89.6493 25.1154 88.3601 25.1154ZM89.217 43.643C85.6296 43.643 82.8244 42.6669 80.8038 40.7123C78.7832 38.7588 77.7742 35.9916 77.7742 32.4119C77.7742 28.7269 78.7033 25.8823 80.5642 23.8757C82.439 21.8564 85.0237 20.8461 88.3195 20.8461C91.4696 20.8461 93.9224 21.7321 95.6768 23.5017C97.4312 25.2726 98.3084 27.7178 98.3084 30.8387V33.7492H83.9336C84.0007 35.4542 84.5116 36.7852 85.4686 37.7422C86.4257 38.6993 87.7681 39.1784 89.4959 39.1784C90.8396 39.1784 92.1072 39.0403 93.3038 38.7652C94.5955 38.4564 95.8516 38.0146 97.0522 37.4469V42.0889C95.9887 42.6137 94.8529 43.0003 93.6423 43.2488C92.4342 43.5112 90.9587 43.643 89.217 43.643ZM108.678 43.643C106.059 43.643 104 42.6403 102.497 40.6337C101.008 38.627 100.264 35.8471 100.264 32.294C100.264 28.6876 101.021 25.8823 102.537 23.8769C104.065 21.8564 106.165 20.8473 108.837 20.8473C111.641 20.8473 113.781 21.9223 115.257 24.0722H115.456C115.151 22.4331 114.998 20.9716 114.998 19.6862V12.6445H121.098V43.2488H116.433L115.257 40.3966H114.998C113.616 42.5604 111.508 43.643 108.678 43.643ZM110.811 38.8641C112.365 38.8641 113.502 38.4179 114.221 37.5254C114.951 36.6343 115.349 35.1195 115.416 32.9823V32.3333C115.416 29.9729 115.044 28.2819 114.299 27.259C113.568 26.236 112.373 25.7251 110.711 25.7251C109.354 25.7251 108.299 26.2956 107.542 27.4364C106.796 28.5646 106.424 30.2087 106.424 32.3726C106.424 34.5364 106.804 36.1628 107.561 37.2504C108.319 38.3253 109.401 38.8641 110.811 38.8641ZM144.147 43.2488L142.432 35.5594L140.12 25.843H139.98L135.912 43.2488H129.373L123.033 21.2593H129.094L131.666 30.9959C132.078 32.7402 132.496 35.1461 132.922 38.2138H133.041C133.095 37.2174 133.328 35.638 133.74 33.4741L134.058 31.8021L136.81 21.2593H143.508L146.121 31.8021L146.359 33.0812C146.612 34.2986 146.818 35.5253 146.978 36.7585C147.07 37.3619 147.123 37.8474 147.137 38.2138H147.256C147.377 37.2707 147.589 35.9789 147.895 34.3399C148.095 33.2214 148.314 32.1066 148.553 30.9959L151.224 21.2606H157.186L150.765 43.25L144.147 43.2488ZM164.006 32.2154C164.006 34.3919 164.364 36.0373 165.082 37.1515C165.813 38.267 166.996 38.8248 168.631 38.8248C170.252 38.8248 171.415 38.2733 172.12 37.1718C172.837 36.0563 173.196 34.4046 173.196 32.2154C173.196 30.0389 172.837 28.4062 172.12 27.3173C171.402 26.2297 170.226 25.6858 168.591 25.6858C166.969 25.6858 165.799 26.2297 165.082 27.3173C164.364 28.3935 164.006 30.0249 164.006 32.2154ZM179.416 32.2154C179.416 35.7951 178.46 38.5941 176.546 40.6134C174.632 42.6327 171.967 43.643 168.551 43.643C166.411 43.643 164.524 43.1841 162.889 42.2664C161.255 41.3347 159.999 40.0037 159.121 38.2733C158.244 36.5418 157.806 34.5224 157.806 32.2141C157.806 28.6229 158.755 25.8291 160.656 23.8364C162.557 21.8437 165.229 20.8473 168.67 20.8473C170.81 20.8473 172.698 21.3062 174.333 22.224C175.968 23.1417 177.223 24.4588 178.1 26.1764C178.977 27.8953 179.416 29.907 179.416 32.2154ZM187.652 32.2154C187.652 34.3919 188.011 36.0373 188.729 37.1515C189.459 38.267 190.643 38.8248 192.277 38.8248C193.899 38.8248 195.062 38.2733 195.766 37.1718C196.485 36.0563 196.843 34.4046 196.843 32.2154C196.843 30.0389 196.485 28.4062 195.766 27.3173C195.048 26.2297 193.872 25.6858 192.238 25.6858C190.616 25.6858 189.447 26.2297 188.729 27.3173C188.011 28.3935 187.652 30.0249 187.652 32.2154ZM203.064 32.2154C203.064 35.7951 202.107 38.5941 200.192 40.6134C198.278 42.6327 195.614 43.643 192.197 43.643C190.058 43.643 188.17 43.1841 186.536 42.2664C184.901 41.3347 183.645 40.0037 182.768 38.2733C181.89 36.5418 181.452 34.5224 181.452 32.2141C181.452 28.6229 182.403 25.8291 184.303 23.8364C186.204 21.8437 188.875 20.8473 192.318 20.8473C194.458 20.8473 196.345 21.3062 197.979 22.224C199.614 23.1417 200.871 24.4588 201.748 26.1764C202.625 27.8953 203.064 29.907 203.064 32.2154ZM213.511 43.643C210.894 43.643 208.834 42.6403 207.332 40.6337C205.842 38.627 205.098 35.8471 205.098 32.294C205.098 28.6876 205.856 25.8823 207.371 23.8769C208.9 21.8564 211 20.8473 213.671 20.8473C216.476 20.8473 218.616 21.9223 220.09 24.0722H220.291C219.985 22.4331 219.832 20.9716 219.832 19.6862V12.6445H225.933V43.2488H221.267L220.09 40.3966H219.832C218.45 42.5604 216.343 43.643 213.511 43.643ZM215.645 38.8641C217.2 38.8641 218.337 38.4179 219.055 37.5254C219.785 36.6343 220.184 35.1195 220.25 32.9823V32.3333C220.25 29.9729 219.879 28.2819 219.134 27.259C218.403 26.236 217.206 25.7251 215.546 25.7251C214.19 25.7251 213.134 26.2956 212.376 27.4364C211.631 28.5646 211.259 30.2087 211.259 32.3726C211.259 34.5364 211.638 36.1628 212.396 37.2504C213.153 38.3253 214.236 38.8641 215.645 38.8641Z" fill="white"/>
<path d="M228.088 51.7064C226.692 51.7064 225.475 51.5631 224.439 51.2754V46.1998C225.502 46.4622 226.473 46.5928 227.35 46.5928C228.705 46.5928 229.676 46.1745 230.26 45.334C230.846 44.5088 231.138 43.2095 231.138 41.4399V14.494H237.318V41.4006C237.318 44.7572 236.54 47.314 234.986 49.071C233.431 50.8279 231.131 51.7064 228.088 51.7064ZM260.227 35.264C260.227 37.8601 259.276 39.9061 257.376 41.3993C255.489 42.8951 252.857 43.643 249.481 43.643C246.371 43.643 243.62 43.065 241.227 41.9114V36.2477C243.194 37.1122 244.856 37.7219 246.211 38.0769C247.58 38.4305 248.83 38.608 249.959 38.608C251.314 38.608 252.351 38.3519 253.07 37.8398C253.8 37.329 254.166 36.5684 254.166 35.5581C254.166 34.9953 254.007 34.4971 253.687 34.0636C253.368 33.6186 252.896 33.1914 252.271 32.7858C251.66 32.3802 250.404 31.7299 248.504 30.8387C246.723 30.0122 245.387 29.2187 244.497 28.4581C243.622 27.7179 242.898 26.8163 242.364 25.8025C241.831 24.7934 241.566 23.6133 241.566 22.2633C241.566 19.7191 242.436 17.7188 244.178 16.2636C245.932 14.8084 248.351 14.0807 251.435 14.0807C252.95 14.0807 254.392 14.2582 255.761 14.6119C257.143 14.9668 258.585 15.4637 260.088 16.1077L258.094 20.8461C256.538 20.2173 255.249 19.7775 254.226 19.5277C253.248 19.283 252.244 19.1578 251.236 19.155C250.066 19.155 249.168 19.4238 248.543 19.9613C247.92 20.4987 247.607 21.201 247.607 22.0655C247.607 22.6043 247.733 23.0758 247.986 23.4827C248.238 23.8757 248.637 24.2623 249.182 24.6426C249.74 25.0102 251.049 25.6782 253.109 26.6492C255.833 27.9333 257.702 29.2251 258.712 30.5231C259.721 31.8085 260.227 33.3879 260.227 35.264Z" fill="white"/>
</svg>
